<svg viewBox="0 0 98.79 28.35" xmlns="http://www.w3.org/2000/svg"><text fill="#2d4f9e" font-family="CooperBlack, Cooper Black" font-size="18" transform="translate(29.12 20.03)">Cinenic</text><circle cx="14.17" cy="14.17" fill="#e2f2f1" r="14.17"/><path d="m7.54 20.78 7.59 7.53a14.17 14.17 0 0 0 13.19-13.31l-7.32-7.26z" fill="#98bae3"/><path d="m14.17 21.19h8.14v2.35h-8.14z" fill="#424a53"/><circle cx="14.17" cy="14.17" fill="#575b67" r="9.36"/><path d="m14.17 4.81v18.73a9.37 9.37 0 1 0 0-18.73z" fill="#333940"/><circle cx="14.17" cy="14.17" fill="#424a53" r="2.32"/><path d="m14.17 11.86v4.63a2.32 2.32 0 1 0 0-4.63z" fill="#24272b"/><circle cx="14.17" cy="8.18" fill="#71788a" r="2.06"/><path d="m14.17 6.12v4.12a2.06 2.06 0 1 0 0-4.12z" fill="#575b67"/><circle cx="14.17" cy="20.16" fill="#71788a" r="2.06"/><path d="m14.17 18.1v4.12a2.06 2.06 0 1 0 0-4.12z" fill="#575b67"/><circle cx="9" cy="11.15" fill="#71788a" r="2.06" transform="matrix(.99479214 -.10192446 .10192446 .99479214 -1.09 .98)"/><circle cx="19.34" cy="17.2" fill="#575b67" r="2.06"/><circle cx="19.34" cy="11.14" fill="#575b67" r="2.06" transform="matrix(.1 -.99 .99 .1 6.29 29.24)"/><circle cx="9" cy="17.2" fill="#71788a" r="2.06"/></svg>