<svg enable-background="new 0 0 512 512" height="512" viewBox="0 0 512 512" width="512" xmlns="http://www.w3.org/2000/svg"><path d="m266 316c0-5.517-4.47-9.994-10-10-5.468-.007-10 4.429-10 10 0 5.517 4.47 9.994 10 10 5.468.007 10-4.429 10-10z"/><path d="m256 0c-138.013 0-256 117.815-256 256 0 138.013 117.815 256 256 256 138.013 0 256-117.815 256-256 0-138.013-117.815-256-256-256zm0 492c-127.925 0-236-108.075-236-236s108.075-236 236-236 236 108.075 236 236-108.075 236-236 236z"/><path d="m256 56c-110.002 0-200 89.316-200 200 0 109.954 89.235 200 200 200 109.955 0 200-89.236 200-200 0-109.954-89.235-200-200-200zm160 209.99h19.718c-2.237 40.932-18.179 79.359-45.626 109.959l-13.88-13.88c-3.905-3.905-10.237-3.905-14.143 0-3.905 3.905-3.905 10.237 0 14.143l13.88 13.88c-30.602 27.448-69.018 43.389-109.949 45.626v-19.718c0-5.523-4.477-10-10-10s-10 4.477-10 10v19.718c-40.932-2.237-79.349-18.179-109.949-45.626l13.88-13.88c3.905-3.905 3.905-10.237 0-14.143-3.905-3.905-10.237-3.905-14.143 0l-13.88 13.88c-27.448-30.602-43.389-69.018-45.626-109.949h19.718c5.523 0 10-4.477 10-10s-4.477-10-10-10h-19.718c2.237-40.932 18.179-79.349 45.626-109.949l13.88 13.88c3.905 3.905 10.237 3.905 14.143 0 3.905-3.905 3.905-10.237 0-14.143l-13.88-13.88c30.602-27.448 69.018-43.389 109.949-45.626v19.718c0 5.523 4.477 10 10 10s10-4.477 10-10v-19.718c40.932 2.237 79.349 18.179 109.949 45.626l-13.88 13.88c-3.905 3.905-3.905 10.237 0 14.143 3.905 3.905 10.237 3.905 14.143 0l13.88-13.88c27.448 30.602 43.389 69.017 45.626 109.949h-19.718c-5.523 0-10 4.477-10 10s4.477 9.99 10 9.99z"/><path d="m345.235 190.795-70.151 42.093c-2.706-2.225-5.783-3.967-9.083-5.142v-51.746c0-5.523-4.477-10-10-10s-10 4.477-10 10v51.72c-11.639 4.128-20 15.243-20 28.28 0 16.542 13.458 30 30 30s30-13.458 30-30c0-2.017-.205-4.018-.603-5.977l70.128-42.078c4.736-2.841 6.271-8.984 3.43-13.72-2.843-4.737-8.988-6.27-13.721-3.43zm-89.235 75.205c-5.514 0-10-4.486-10-10s4.486-10 10-10c5.767 0 10 4.697 10 10 0 5.514-4.486 10-10 10z"/><path d="m296 306c-5.523 0-10 4.477-10 10s4.477 10 10 10c5.514 0 10 4.486 10 10s-4.486 10-10 10h-80c-5.514 0-10-4.486-10-10s4.486-10 10-10c5.523 0 10-4.477 10-10s-4.477-10-10-10c-16.542 0-30 13.458-30 30s13.458 30 30 30h80c16.542 0 30-13.458 30-30s-13.458-30-30-30z"/></svg>