<svg viewBox="0 0 142.73 142.73" xmlns="http://www.w3.org/2000/svg" xmlns:xlink="http://www.w3.org/1999/xlink"><linearGradient id="a" gradientUnits="userSpaceOnUse" x1="124.06" x2="16.15" y1="138.89" y2=".63"><stop offset=".27" stop-color="#fcea10" stop-opacity=".96"/><stop offset=".39" stop-color="#fbd51d" stop-opacity=".97"/><stop offset=".56" stop-color="#fac129" stop-opacity=".99"/><stop offset=".75" stop-color="#f9b631"/><stop offset="1" stop-color="#f9b233"/></linearGradient><linearGradient id="b" gradientUnits="userSpaceOnUse" x2="142.73" y1="71.37" y2="71.37"><stop offset="0" stop-color="#ffef26"/><stop offset="0" stop-color="#f9ce2c"/><stop offset="0" stop-color="#f5b331"/><stop offset="0" stop-color="#f2a035"/><stop offset="0" stop-color="#f09537"/><stop offset="0" stop-color="#ef9138"/><stop offset="1" stop-color="#fff7b0"/></linearGradient><rect fill="url(#a)" height="141.73" rx="12" stroke="url(#b)" stroke-miterlimit="10" width="141.73" x=".5" y=".5"/><g fill="#ea5b0c"><path d="m44.53 49.93a5.2 5.2 0 0 0 -5.19-5.19 5.13 5.13 0 0 0 -3.34 1.26 5 5 0 0 0 -1.67-.28 5.19 5.19 0 0 0 -1.75 10.07 5.18 5.18 0 0 0 10.18-1.38 4.52 4.52 0 0 0 0-.52 5.22 5.22 0 0 0 1.77-3.96zm-4 2.15-1 .54.33 1.05a2.51 2.51 0 0 1 .11.72 2.47 2.47 0 0 1 -4.93.18l-.04-1.09-1.08-.15a2.47 2.47 0 0 1 .37-4.91 2.43 2.43 0 0 1 1.28.36l1 .64.74-1a2.47 2.47 0 1 1 3.17 3.64z"/><path d="m59 32.53a4.78 4.78 0 0 0 -7.81-3.69 4.78 4.78 0 0 0 -6.19 4.54 3.91 3.91 0 0 0 0 .49 4.77 4.77 0 0 0 6.08 7.13 4.78 4.78 0 0 0 6.36-4.51c0-.13 0-.27 0-.4a4.8 4.8 0 0 0 1.56-3.56zm-3.77 1.79-1 .54.32 1a2 2 0 0 1 .09.6 2.05 2.05 0 0 1 -2 2.06 2.13 2.13 0 0 1 -1-.28l-.83-.49-.73.62a2 2 0 0 1 -1.33.49 2.05 2.05 0 0 1 -1.36-3.59l.64-.56-.23-.82a2.1 2.1 0 0 1 -.08-.56 2.06 2.06 0 0 1 2.06-2.05 2 2 0 0 1 1.06.3l1.05.64.75-1a2 2 0 0 1 1.63-.81 2.05 2.05 0 0 1 1 3.84z"/><path d="m114.16 42.6a4.78 4.78 0 0 0 -7.81-3.7 4.8 4.8 0 0 0 -6.24 4.55 4.15 4.15 0 0 0 0 .49 4.77 4.77 0 0 0 6.06 7.14 4.78 4.78 0 0 0 6.36-4.5c0-.14 0-.27 0-.41a4.78 4.78 0 0 0 1.63-3.57zm-3.77 1.79-1 .54.32 1a2.1 2.1 0 0 1 .09.61 2.05 2.05 0 0 1 -2 2.05 2 2 0 0 1 -1-.28l-.84-.48-.73.62a2 2 0 0 1 -1.33.48 2.05 2.05 0 0 1 -1.36-3.59l.64-.56-.23-.82a2.09 2.09 0 0 1 -.08-.55 2.06 2.06 0 0 1 2.06-2.05 2.1 2.1 0 0 1 1.07.29l1 .64.75-1a2 2 0 0 1 1.63-.82 2.06 2.06 0 0 1 1 3.85z"/><path d="m99.68 30.85a5.16 5.16 0 0 0 -2.91-2.09 5.37 5.37 0 0 0 -.71-1.54 5.18 5.18 0 0 0 -7.21-1.37 5.22 5.22 0 0 0 -2.1 5.58 5.21 5.21 0 0 0 -.34 6.28 5.1 5.1 0 0 0 3.31 2.18 5.54 5.54 0 0 0 1 .1 5.15 5.15 0 0 0 2.9-.9 4.63 4.63 0 0 0 .42-.32 5.24 5.24 0 0 0 4.28-.71 5.2 5.2 0 0 0 1.36-7.21zm-1.86 3.38a2.52 2.52 0 0 1 -1 1.58 2.47 2.47 0 0 1 -2.49.16l-1-.49-.69.86a2.35 2.35 0 0 1 -.54.5 2.46 2.46 0 0 1 -1.85.38 2.42 2.42 0 0 1 -1.57-1 2.48 2.48 0 0 1 .5-3.32l.86-.67-.47-1a2.49 2.49 0 0 1 .83-3.12 2.46 2.46 0 0 1 1.38-.42 2.42 2.42 0 0 1 .47 0 2.46 2.46 0 0 1 1.58 1 2.37 2.37 0 0 1 .4 1.31l.06 1.23 1.23.06a2.44 2.44 0 0 1 1.91 1.08 2.47 2.47 0 0 1 .39 1.86z"/><path d="m100 63.16a4.94 4.94 0 0 0 -.48-2.11 4.8 4.8 0 0 0 -3.35-6.79 4.77 4.77 0 0 0 -6.44-6.18 6.25 6.25 0 0 0 -4.32-1.74 6.44 6.44 0 0 0 -1.24.13 4.68 4.68 0 0 0 -1.26-.9 5.19 5.19 0 0 0 -3.69-8.84 5.13 5.13 0 0 0 -3.35 1.27 5.2 5.2 0 0 0 -4.5.55 5.18 5.18 0 0 0 -8.63 4.82 4.79 4.79 0 0 0 -3.87 4.11 5.28 5.28 0 0 0 -2-.19 5.38 5.38 0 0 0 -2.87 1.05 4.58 4.58 0 0 0 -1.48-.23 4.78 4.78 0 0 0 -4.77 4.77 3.87 3.87 0 0 0 0 .48 4.8 4.8 0 0 0 -.52 5.19 5.18 5.18 0 0 0 -3.56 8.64 8.24 8.24 0 0 0 -1.8 5.81l7.4 44.77h42.56l7.38-44.66v-.11a8.2 8.2 0 0 0 -1-4.59 5.26 5.26 0 0 0 .17-1.29c0-.14 0-.27 0-.41a4.75 4.75 0 0 0 1.62-3.55zm-48.43 51.9-7-42.32a5.46 5.46 0 0 1 5.43-5.85h.06a5.45 5.45 0 0 1 5.46 5.25v.2.33l3.36 42.39zm10.07 0-3.37-42.82a5.48 5.48 0 0 1 5.46-5.35 5.47 5.47 0 0 1 5.46 5.46v42.71zm10.26 0v-42.71a5.47 5.47 0 0 1 5.46-5.46 5.48 5.48 0 0 1 5.46 5.35l-3.38 42.82zm24.62-42.32-7 42.32h-7.34l3.36-42.34c0-.11 0-.22 0-.34v-.19a5.45 5.45 0 0 1 5.46-5.3h.06a5.46 5.46 0 0 1 5.44 5.85zm-.28-7.74-.83.47a8.15 8.15 0 0 0 -4.33-1.25h-.08a8.16 8.16 0 0 0 -6.83 3.66 8.36 8.36 0 0 0 -.93-1.15 8.09 8.09 0 0 0 -5.89-2.51 8.19 8.19 0 0 0 -6.82 3.67 8.19 8.19 0 0 0 -6.82-3.67 8.09 8.09 0 0 0 -5.89 2.51 8.36 8.36 0 0 0 -.93 1.15 8.16 8.16 0 0 0 -6.83-3.66h-.06a8.26 8.26 0 0 0 -4.3 1.23 2.47 2.47 0 0 1 3.1-3.78l1 .64.74-1a2.8 2.8 0 0 1 .59-.55l2.33-1.57-2.68-.86a2 2 0 0 1 -1.42-1.95 2.05 2.05 0 0 1 .69-1.54l.63-.56-.22-.82a2 2 0 0 1 -.08-.55 2.06 2.06 0 0 1 2-2.06 2.1 2.1 0 0 1 1.07.3l1 .64.74-1a2.39 2.39 0 0 1 1.93-.79 3.61 3.61 0 0 1 2.61 1 4.52 4.52 0 0 0 .46.34l1.05.64.76-.98.67-.87-.67-.83a2.05 2.05 0 0 1 1.59-3.3l.76.05.44-.57a2.45 2.45 0 0 1 .42-.43l.86-.68-.48-1a2.47 2.47 0 0 1 4.26-2.46 2.32 2.32 0 0 1 .14.23l1.01 1.86 1.3-1.65a2.45 2.45 0 0 1 1.94-.94 2.52 2.52 0 0 1 1.28.36l1 .64.75-1a2.47 2.47 0 1 1 3.17 3.64l-1 .54.32 1a2.44 2.44 0 0 1 .1.71v1.3l1.18.16a2.06 2.06 0 0 1 1.46.93l.59.93 1-.39a3.45 3.45 0 0 1 1.24-.23 3.55 3.55 0 0 1 2.94 1.57l.97 1.43 1.16-1.07a2.09 2.09 0 0 1 1.4-.55 2.06 2.06 0 0 1 1 3.85l-1 .54.33 1.05a2.9 2.9 0 0 1 .07.34l.23 2 1.78-1a2 2 0 0 1 1-.26 2.06 2.06 0 0 1 1.62 3.32l-.66.84.66.84a2 2 0 0 1 -.59 3.1z"/><path d="m75.17 50.79a4.19 4.19 0 0 0 -1.17.21 5.08 5.08 0 0 0 -8.68 2.37 5.08 5.08 0 0 0 -4.83 5.07h2.72a2.36 2.36 0 0 1 2.35-2.44 2.38 2.38 0 0 1 .65.1l2 .56-.22-2c0-.1 0-.19 0-.27a2.36 2.36 0 0 1 4.45-1.09l.75 1.44 1.28-1a1.27 1.27 0 0 1 2 1h2.72a4 4 0 0 0 -4.02-3.95z"/><path d="m84.24 55.77a4.72 4.72 0 0 0 -3.47 1.53 4.54 4.54 0 0 0 -1.52-.3 4.63 4.63 0 0 0 -4.62 4.63h2.72a1.91 1.91 0 0 1 1.9-1.91 1.86 1.86 0 0 1 1.14.38l1.34 1 .71-1.51a2 2 0 0 1 3.79.85h2.77a4.72 4.72 0 0 0 -4.76-4.67z"/><path d="m48.16 72.25h2.72v10.7h-2.72z" transform="matrix(.98660065 -.16315377 .16315377 .98660065 -12 9.12)"/><path d="m52.13 98.25h2.72v6.68h-2.72z" transform="matrix(.98660065 -.16315377 .16315377 .98660065 -15.85 10.08)"/><path d="m74.36 103.95h3.54v2.72h-3.54z" transform="matrix(.07915506 -.99686232 .99686232 .07915506 -34.87 172.86)"/><path d="m72.35 86.32h10.37v2.72h-10.37z" transform="matrix(.07915506 -.99686232 .99686232 .07915506 -16.01 158.02)"/><path d="m75.5 73.98h6.03v2.72h-6.03z" transform="matrix(.07915506 -.99686232 .99686232 .07915506 -2.81 147.64)"/></g></svg>