<svg viewBox="0 0 142.73 142.73" xmlns="http://www.w3.org/2000/svg" xmlns:xlink="http://www.w3.org/1999/xlink"><linearGradient id="a" gradientUnits="userSpaceOnUse" x1="124.06" x2="16.15" y1="138.89" y2=".63"><stop offset=".27" stop-color="#00a19a" stop-opacity=".96"/><stop offset=".36" stop-color="#0894a2" stop-opacity=".97"/><stop offset=".55" stop-color="#1480ae" stop-opacity=".99"/><stop offset=".75" stop-color="#1b75b6"/><stop offset="1" stop-color="#1d71b8"/></linearGradient><linearGradient id="b" gradientUnits="userSpaceOnUse" x2="142.73" y1="71.37" y2="71.37"><stop offset="0" stop-color="#ef7c2f"/><stop offset="0" stop-color="#ed7c30"/><stop offset="0" stop-color="#bc7551"/><stop offset="0" stop-color="#92706d"/><stop offset="0" stop-color="#706b84"/><stop offset="0" stop-color="#556895"/><stop offset="0" stop-color="#4265a2"/><stop offset="0" stop-color="#3763aa"/><stop offset="0" stop-color="#3363ac"/><stop offset="1" stop-color="#6cb29d"/></linearGradient><rect fill="url(#a)" height="141.73" rx="12" stroke="url(#b)" stroke-miterlimit="10" width="141.73" x=".5" y=".5"/><g fill="#1f1448"><path d="m105.64 39.45a1.87 1.87 0 0 0 -.07-.49 1.83 1.83 0 0 0 -1.86-2h-4.89a2.23 2.23 0 0 0 -.27 0 1.74 1.74 0 0 0 -1.61.54 22.69 22.69 0 0 0 -3 3.81h-2.48c-.7-.94-1.31-1.94-1.91-2.94a1.76 1.76 0 0 0 -1.8-1.37h-31.92a2.77 2.77 0 0 0 -.3 0 1.66 1.66 0 0 0 -1.58.54 17.71 17.71 0 0 0 -2.35 3.81h-3.32c-.5-1.07-1-2.15-1.59-3.17-.06-.08-.12-.15-.17-.23a1.78 1.78 0 0 0 -1.76-1.24c-2.19 0-5.65-.72-7.69-.07-3.68 1.17-1.82 6.55-1.7 9.27.19 4.13 0 8.3.06 12.44q.07 14.12.27 28.24c0 4.27.1 8.54.18 12.8a1.8 1.8 0 0 0 .61 1.38 1.78 1.78 0 0 0 1.84 1.58 44.59 44.59 0 0 0 5.66-.25 3 3 0 0 0 .43-.09 1.9 1.9 0 0 0 1.95-1.33 24 24 0 0 0 .92-3.47h3.71a6.53 6.53 0 0 1 .55 2.44 2.11 2.11 0 0 0 .19.83 1.93 1.93 0 0 0 1.74 1.36c8.71.67 21.47.76 30.74.77-.9-1.09-1.21-2.54-1.83-3.87-8.34 0-19.59-.13-27.13-.64a11.48 11.48 0 0 0 -1.4-3.8 1.72 1.72 0 0 0 -1.77-.91 1.78 1.78 0 0 0 -.41 0h-6.15a1.79 1.79 0 0 0 -1.84 1.61 2.09 2.09 0 0 0 -.09.52 10.34 10.34 0 0 1 -.53 2.81c-1.11.1-2.23.14-3.34.15-.26-14-.49-42.73-.5-56.75a1.85 1.85 0 0 0 -.26-1v-.18h4.62c.67 1.19 1.21 2.45 1.82 3.67a1.83 1.83 0 0 0 1.73.94h.2 5.4a1.76 1.76 0 0 0 1.49-.73 2.2 2.2 0 0 0 .63-.94 10.7 10.7 0 0 1 1.41-2.7h30.24a38.63 38.63 0 0 0 2.49 3.63 1.41 1.41 0 0 0 .78.49 1.89 1.89 0 0 0 1.1.33h4.37a1.78 1.78 0 0 0 1.75-1.43 20.64 20.64 0 0 1 2.14-2.94h2.62c.08 9.48-.32 25.36-.51 39.19a15.59 15.59 0 0 1 3.79 4.42c.19-15.34.75-33.95.6-45.03z"/><path d="m52.23 49.62h-6.7a1.86 1.86 0 0 0 -1.82 2.38 1.77 1.77 0 0 0 -.11.63v3.49a1.92 1.92 0 0 0 1.68 2.81 59.76 59.76 0 0 0 6.72-.3l.39-.08a1.81 1.81 0 0 0 1.8-1.86v-4.37a1.93 1.93 0 0 0 -.09-.56 1.83 1.83 0 0 0 -1.87-2.14zm-1.93 5.29c-.95.06-1.89.09-2.84.1v-1.53h2.84z"/><path d="m52.23 65.06h-6.7a1.87 1.87 0 0 0 -1.82 2.34 1.71 1.71 0 0 0 -.11.62v3.49a1.93 1.93 0 0 0 1.68 2.82 59.76 59.76 0 0 0 6.72-.26l.39-.07a1.82 1.82 0 0 0 1.8-1.86v-4.38a1.92 1.92 0 0 0 -.09-.55 1.84 1.84 0 0 0 -1.87-2.15zm-1.93 5.29c-.95.06-1.89.09-2.84.1v-1.53h2.84z"/><path d="m52.23 80.5h-6.7a1.87 1.87 0 0 0 -1.82 2.34 1.75 1.75 0 0 0 -.11.62v3.54a1.92 1.92 0 0 0 1.68 2.81 57.47 57.47 0 0 0 6.72-.3 2.66 2.66 0 0 0 .39-.07 1.81 1.81 0 0 0 1.8-1.86v-4.37a1.93 1.93 0 0 0 -.09-.56 1.84 1.84 0 0 0 -1.87-2.15zm-1.93 5.29c-.95.07-1.89.09-2.84.11v-1.54h2.84z"/><path d="m93.93 49.62h-6.7a1.86 1.86 0 0 0 -1.82 2.38 1.77 1.77 0 0 0 -.11.63v3.49a1.92 1.92 0 0 0 1.7 2.76 59.76 59.76 0 0 0 6.69-.25l.39-.08a1.81 1.81 0 0 0 1.8-1.86v-4.37a1.93 1.93 0 0 0 -.09-.56 1.83 1.83 0 0 0 -1.86-2.14zm-1.93 5.29c-.94.06-1.88.09-2.83.1v-1.53h2.83z"/><path d="m93.93 65.06h-6.7a1.87 1.87 0 0 0 -1.82 2.34 1.71 1.71 0 0 0 -.11.62v3.49a1.93 1.93 0 0 0 1.7 2.82 59.76 59.76 0 0 0 6.69-.26l.39-.07a1.82 1.82 0 0 0 1.8-1.86v-4.38a1.92 1.92 0 0 0 -.09-.55 1.84 1.84 0 0 0 -1.86-2.15zm-1.93 5.29c-.94.06-1.88.09-2.83.1v-1.53h2.83z"/><path d="m93.76 78a14.17 14.17 0 1 0 14.18 14.17 14.18 14.18 0 0 0 -14.18-14.17zm9.51 22.67-1-1a.71.71 0 0 0 -1 1l1 1a12.64 12.64 0 0 1 -7.79 3.24v-1.4a.71.71 0 0 0 -1.42 0v1.4a12.64 12.64 0 0 1 -7.79-3.24l1-1a.71.71 0 1 0 -1-1l-1 1a12.63 12.63 0 0 1 -3.27-7.8h1.39a.71.71 0 0 0 0-1.42h-1.39a12.63 12.63 0 0 1 3.23-7.79l1 1a.71.71 0 1 0 1-1l-1-1a12.64 12.64 0 0 1 7.79-3.24v1.4a.71.71 0 1 0 1.42 0v-1.4a12.64 12.64 0 0 1 7.79 3.24l-1 1a.71.71 0 0 0 1 1l1-1a12.68 12.68 0 0 1 3.23 7.79h-1.4a.71.71 0 0 0 0 1.42h1.4a12.68 12.68 0 0 1 -3.19 7.79z" stroke="#1f1448" stroke-miterlimit="10"/><path d="m100.09 87.54-5 3a1.92 1.92 0 0 0 -.64-.36v-3.69a.71.71 0 0 0 -1.42 0v3.67a2.13 2.13 0 1 0 2.84 2 3 3 0 0 0 0-.42l5-3a.71.71 0 1 0 -.73-1.21zm-6.33 5.33a.71.71 0 1 1 .71-.71.71.71 0 0 1 -.71.71z"/></g></svg>