<svg viewBox="0 0 142.73 144.88" xmlns="http://www.w3.org/2000/svg" xmlns:xlink="http://www.w3.org/1999/xlink"><linearGradient id="a" gradientUnits="userSpaceOnUse" x1="124.06" x2="16.15" y1="138.89" y2=".63"><stop offset=".27" stop-color="#a2c617" stop-opacity=".96"/><stop offset=".32" stop-color="#92c21c" stop-opacity=".97"/><stop offset=".43" stop-color="#72b925" stop-opacity=".98"/><stop offset=".55" stop-color="#59b22c" stop-opacity=".99"/><stop offset=".68" stop-color="#48ae31" stop-opacity=".99"/><stop offset=".82" stop-color="#3dab34"/><stop offset="1" stop-color="#3aaa35"/></linearGradient><linearGradient id="b" gradientUnits="userSpaceOnUse" x2="142.73" y1="71.37" y2="71.37"><stop offset="0" stop-color="#ffef26"/><stop offset="0" stop-color="#f6eb27"/><stop offset="0" stop-color="#c8da29"/><stop offset="0" stop-color="#9dc92c"/><stop offset="0" stop-color="#77bb2f"/><stop offset="0" stop-color="#57ae31"/><stop offset="0" stop-color="#3ba432"/><stop offset="0" stop-color="#259b34"/><stop offset="0" stop-color="#149535"/><stop offset="0" stop-color="#099035"/><stop offset="0" stop-color="#028e36"/><stop offset="0" stop-color="#008d36"/><stop offset=".56" stop-color="#53aa29"/><stop offset=".99" stop-color="#95c11f"/></linearGradient><rect fill="url(#a)" height="141.73" rx="12" stroke="url(#b)" stroke-miterlimit="10" width="141.73" x=".5" y=".5"/><g fill="#063"><path d="m113.58 35.93h-78.66a3.19 3.19 0 0 0 -3.19 3.19v41.81a3.19 3.19 0 0 0 3.19 3.19h78.66a3.19 3.19 0 0 0 3.19-3.19v-41.81a3.19 3.19 0 0 0 -3.19-3.19zm-79 45v-41.81a.34.34 0 0 1 .35-.35h2.47v42.51h-2.48a.34.34 0 0 1 -.35-.35zm5.66-42.16h68v42.51h-68zm73.71 42.16a.35.35 0 0 1 -.36.35h-2.49v-42.51h2.48a.35.35 0 0 1 .36.35z"/><path d="m74.25 43a16.87 16.87 0 0 0 -10.15 3.38l1.69 2.27a14.15 14.15 0 1 1 -1.79 1.62l-2.05-2a17 17 0 1 0 12.3-5.27z"/><path d="m70 68.53a1.45 1.45 0 0 0 .75-.22l11.34-7.08a1.43 1.43 0 0 0 .45-2 1.61 1.61 0 0 0 -.45-.45l-11.34-7.04a1.42 1.42 0 0 0 -2.17 1.2v14.17a1.43 1.43 0 0 0 1.42 1.42zm1.42-13 7.24 4.47-7.24 4.52z"/><path d="m43.07 43v2.83h2.83v-1.4h1.42v-2.83h-2.83a1.41 1.41 0 0 0 -1.42 1.4z"/><path d="m104 41.6h-2.83v2.83h1.42v1.42h2.83v-2.85a1.41 1.41 0 0 0 -1.42-1.4z"/><path d="m102.6 75.62h-1.42v2.83h2.82a1.41 1.41 0 0 0 1.43-1.45v-2.8h-2.83z"/><path d="m45.9 74.2h-2.83v2.8a1.41 1.41 0 0 0 1.42 1.42h2.83v-2.8h-1.42z"/><path d="m111.81 94h-6.38v-2.09a5 5 0 0 0 -5-5h-46.04v2.84h46.08a2.13 2.13 0 0 1 2.13 2.12v11.13a5.06 5.06 0 0 0 -2.13-.48h-3.56c0-.11 0-.23 0-.35v-5a3.19 3.19 0 0 0 -3.17-3.17h-10.63a3.19 3.19 0 0 0 -3.19 3.19v5 .35h-2.13a4.93 4.93 0 0 0 -3.54 1.5 4.93 4.93 0 0 0 -3.54-1.5h-2.15c0-.11 0-.23 0-.35v-5a3.19 3.19 0 0 0 -3.17-3.19h-10.63a3.2 3.2 0 0 0 -3.19 3.19v5 .35h-3.57a5.06 5.06 0 0 0 -2.13.48v-11.11a2.14 2.14 0 0 1 2.13-2.12h3.54v-2.79h-3.54a5 5 0 0 0 -5 5v2h-6.31a5 5 0 0 0 -5 5v11.34a5 5 0 0 0 4.31 4.91v4.3a1.42 1.42 0 0 0 1.4 1.45h5.67a1.41 1.41 0 0 0 1.27-.78l2.44-4.89h54.94l2.44 4.89a1.41 1.41 0 0 0 1.27.78h5.67a1.42 1.42 0 0 0 1.42-1.42v-4.3a5 5 0 0 0 4.25-4.91v-3.57h-2.83v3.54a2.15 2.15 0 0 1 -2.13 2.13h-6.38v-15.59h6.38a2.14 2.14 0 0 1 2.13 2.12v5h2.83v-5a5 5 0 0 0 -4.96-5zm-29.06 8.15v-5a.35.35 0 0 1 .36-.35h10.63a.35.35 0 0 1 .35.35v5a.35.35 0 0 1 -.35.35h-10.63a.35.35 0 0 1 -.36-.31zm-28.34 0v-5a.35.35 0 0 1 .35-.35h10.63a.35.35 0 0 1 .36.35v5a.35.35 0 0 1 -.36.35h-10.63a.35.35 0 0 1 -.35-.31zm-6.41 3.23h22.71a2.12 2.12 0 0 1 2.12 2.13v5h-26.93v-5a2.14 2.14 0 0 1 2.1-2.13zm-13.46 5v-11.38a2.12 2.12 0 0 1 2.12-2.12h6.38v15.59h-6.35a2.14 2.14 0 0 1 -2.12-2.13zm7.62 7.8h-3.34v-2.88h4.79zm67.49-2.84v2.84h-3.37l-1.42-2.84zm-34-2.83v-5a2.12 2.12 0 0 1 2.12-2.13h22.68a2.13 2.13 0 0 1 2.13 2.13v5z"/></g></svg>