<svg viewBox="0 0 142.73 142.73" xmlns="http://www.w3.org/2000/svg" xmlns:xlink="http://www.w3.org/1999/xlink"><linearGradient id="a" gradientUnits="userSpaceOnUse" x1="124.06" x2="16.15" y1="138.89" y2=".63"><stop offset=".27" stop-color="#ee7138" stop-opacity=".96"/><stop offset=".35" stop-color="#ea5f35" stop-opacity=".97"/><stop offset=".49" stop-color="#e44630" stop-opacity=".98"/><stop offset=".64" stop-color="#df342d" stop-opacity=".99"/><stop offset=".8" stop-color="#dd292b"/><stop offset="1" stop-color="#dc262a"/></linearGradient><linearGradient id="b" gradientUnits="userSpaceOnUse" x2="142.73" y1="71.37" y2="71.37"><stop offset="0" stop-color="#ef7c2f"/><stop offset="0" stop-color="#ec752e"/><stop offset="0" stop-color="#db532a"/><stop offset="0" stop-color="#ce3826"/><stop offset="0" stop-color="#c52524"/><stop offset="0" stop-color="#c01a22"/><stop offset="0" stop-color="#be1622"/><stop offset="1" stop-color="#e94f30"/></linearGradient><rect fill="url(#a)" height="141.73" rx="12" stroke="url(#b)" stroke-miterlimit="10" width="141.73" x=".5" y=".5"/><g fill="#8a0f0e"><path d="m71.91 35.93a35.44 35.44 0 1 0 35.43 35.44 35.44 35.44 0 0 0 -35.43-35.44zm0 68.58a33.15 33.15 0 1 1 33.15-33.14 33.15 33.15 0 0 1 -33.15 33.14z"/><path d="m71.91 41.65a29.72 29.72 0 1 0 29.72 29.72 29.72 29.72 0 0 0 -29.72-29.72zm0 57.15a27.44 27.44 0 1 1 27.43-27.43 27.43 27.43 0 0 1 -27.43 27.43z"/><path d="m96.94 69a1.14 1.14 0 1 0 -2.27.22c.06.72.1 1.46.1 2.18a1.14 1.14 0 0 0 2.28 0 21.53 21.53 0 0 0 -.11-2.4z"/><path d="m95.5 66.76a1.15 1.15 0 0 0 .84-1.38 25.09 25.09 0 0 0 -24.43-19.16 1.15 1.15 0 0 0 0 2.29 22.79 22.79 0 0 1 22.21 17.41 1.14 1.14 0 0 0 1.11.87 1.24 1.24 0 0 0 .27-.03z"/><path d="m89.5 64.51h-12.61l-3.89-11.99a1.15 1.15 0 0 0 -1.09-.79 1.14 1.14 0 0 0 -1.08.79l-3.9 12h-12.61a1.14 1.14 0 0 0 -.67 2.07l10.2 7.41-3.85 12a1.15 1.15 0 0 0 .42 1.28 1.11 1.11 0 0 0 1.34 0l10.2-7.41 10.2 7.41a1.14 1.14 0 0 0 1.71-1.28l-3.87-12 10.2-7.41a1.14 1.14 0 0 0 -.67-2.07zm-11.5 8.11a1.15 1.15 0 0 0 -.42 1.28l3.07 9.43-8-5.83a1.14 1.14 0 0 0 -1.34 0l-8 5.83 3.07-9.43a1.15 1.15 0 0 0 -.42-1.28l-8-5.83h9.92a1.13 1.13 0 0 0 .96-.79l3.07-9.43 3.09 9.43a1.13 1.13 0 0 0 1.08.79h9.92z"/></g></svg>