<?xml version="1.0"?>
<svg xmlns="http://www.w3.org/2000/svg" id="Line_cutting_stroke_ex" data-name="Line cutting stroke ex" width="512" height="512" viewBox="0 0 512 512"><g><path d="M478,16H34A18.02,18.02,0,0,0,16,34V270a18.02,18.02,0,0,0,18,18H478a18.02,18.02,0,0,0,18-18V34A18.02,18.02,0,0,0,478,16ZM32,270V34a2.002,2.002,0,0,1,2-2H48V272H34A2.002,2.002,0,0,1,32,270ZM64,32H448V272H64ZM480,270a2.002,2.002,0,0,1-2,2H464V32h14a2.002,2.002,0,0,1,2,2Z"/><path d="M256,56a95.213,95.213,0,0,0-57.3193,18.9839l9.5615,12.8281a80.0636,80.0636,0,1,1-10.3013,9.15l-11.6094-11.01A96,96,0,1,0,256,56Z"/><path d="M232,200a7.9974,7.9974,0,0,0,4.2407-1.2158l64-40a8.0006,8.0006,0,0,0,0-13.5684l-64-40A8,8,0,0,0,224,112v80a8,8,0,0,0,8,8Zm8-73.5659L280.9058,152,240,177.5659Z"/><path d="M80,56V72H96V64h8V48H88A8,8,0,0,0,80,56Z"/><path d="M424,48H408V64h8v8h16V56A8,8,0,0,0,424,48Z"/><path d="M416,240h-8v16h16a8,8,0,0,0,8-8V232H416Z"/><path d="M96,232H80v16a8,8,0,0,0,8,8h16V240H96Z"/><path d="M468,344H432V332a28.0314,28.0314,0,0,0-28-28H143.9077v16H404a12.0137,12.0137,0,0,1,12,12v62.7042A27.8338,27.8338,0,0,0,404,392H383.8893A18.1,18.1,0,0,0,384,390V362a18.02,18.02,0,0,0-18-18H306a18.02,18.02,0,0,0-18,18v28a18.1,18.1,0,0,0,.1107,2H276a27.9177,27.9177,0,0,0-20,8.4229A27.9177,27.9177,0,0,0,236,392H223.8893A18.1,18.1,0,0,0,224,390V362a18.02,18.02,0,0,0-18-18H146a18.02,18.02,0,0,0-18,18v28a18.1,18.1,0,0,0,.1107,2H108a27.8338,27.8338,0,0,0-12,2.7042V332a12.0137,12.0137,0,0,1,12-12h20V304H108a28.0314,28.0314,0,0,0-28,28v12H44a28.0314,28.0314,0,0,0-28,28v64a28.0429,28.0429,0,0,0,24,27.7147V488a8,8,0,0,0,8,8H80a7.9992,7.9992,0,0,0,7.1553-4.4224L100.9441,464H411.0559l13.7888,27.5776A7.9992,7.9992,0,0,0,432,496h32a8,8,0,0,0,8-8V463.7147A28.0429,28.0429,0,0,0,496,436V416H480v20a12.0137,12.0137,0,0,1-12,12H432V360h36a12.0137,12.0137,0,0,1,12,12v28h16V372A28.0314,28.0314,0,0,0,468,344ZM304,390V362a2.002,2.002,0,0,1,2-2h60a2.002,2.002,0,0,1,2,2v28a2.002,2.002,0,0,1-2,2H306A2.002,2.002,0,0,1,304,390Zm-160,0V362a2.002,2.002,0,0,1,2-2h60a2.002,2.002,0,0,1,2,2v28a2.002,2.002,0,0,1-2,2H146A2.002,2.002,0,0,1,144,390Zm-36,18H236a12.0137,12.0137,0,0,1,12,12v28H96V420A12.0137,12.0137,0,0,1,108,408ZM32,436V372a12.0137,12.0137,0,0,1,12-12H80v88H44A12.0137,12.0137,0,0,1,32,436Zm43.0557,44H56V464H83.0557ZM456,464v16H436.9443l-8-16ZM264,448V420a12.0137,12.0137,0,0,1,12-12H404a12.0137,12.0137,0,0,1,12,12v28Z"/></g></svg>
